<svg width="17" height="9" viewBox="0 0 17 9" fill="none" xmlns="http://www.w3.org/2000/svg">
<path d="M8.67239 6.68147L14.8738 0.42948C15.0848 0.216827 15.3308 0.113902 15.6121 0.120707C15.8933 0.127512 16.1394 0.237524 16.3503 0.450745C16.5613 0.663397 16.6667 0.911493 16.6667 1.19503C16.6667 1.47857 16.5613 1.72666 16.3503 1.93931L9.87471 8.48902C9.70596 8.65914 9.51612 8.78674 9.30519 8.8718C9.09425 8.95686 8.88332 8.99939 8.67239 8.99939C8.46146 8.99939 8.25052 8.95686 8.03959 8.8718C7.82866 8.78674 7.63882 8.65914 7.47007 8.48902L0.973337 1.93931C0.762404 1.72666 0.660312 1.47488 0.667062 1.18397C0.673812 0.893062 0.782935 0.641565 0.99443 0.42948C1.20536 0.216826 1.45145 0.1105 1.7327 0.1105C2.01394 0.1105 2.26003 0.216826 2.47096 0.42948L8.67239 6.68147Z" fill="#77758A"/>
</svg>
