<svg width="18" height="12" viewBox="0 0 18 12" fill="none" xmlns="http://www.w3.org/2000/svg">
<path d="M13.5 10.875C14.1225 10.875 14.625 10.3725 14.625 9.75C14.625 9.1275 14.1225 8.625 13.5 8.625C12.8775 8.625 12.375 9.1275 12.375 9.75C12.375 10.3725 12.8775 10.875 13.5 10.875ZM14.625 4.125H12.75V6H16.095L14.625 4.125ZM4.5 10.875C5.1225 10.875 5.625 10.3725 5.625 9.75C5.625 9.1275 5.1225 8.625 4.5 8.625C3.8775 8.625 3.375 9.1275 3.375 9.75C3.375 10.3725 3.8775 10.875 4.5 10.875ZM15 3L17.25 6V9.75H15.75C15.75 10.995 14.745 12 13.5 12C12.255 12 11.25 10.995 11.25 9.75H6.75C6.75 10.995 5.745 12 4.5 12C3.255 12 2.25 10.995 2.25 9.75H0.75V1.5C0.75 0.6675 1.4175 0 2.25 0H12.75V3H15ZM2.25 1.5V8.25H2.82C3.2325 7.7925 3.8325 7.5 4.5 7.5C5.1675 7.5 5.7675 7.7925 6.18 8.25H11.25V1.5H2.25Z" fill="url(#paint0_linear_93_1456)"/>
<defs>
<linearGradient id="paint0_linear_93_1456" x1="5.94627" y1="-3.19018e-07" x2="4.87336" y2="11.9078" gradientUnits="userSpaceOnUse">
<stop stop-color="#6459F3"/>
<stop offset="1" stop-color="#4237CD"/>
</linearGradient>
</defs>
</svg>
