<svg width="18" height="20" viewBox="0 0 18 20" fill="none" xmlns="http://www.w3.org/2000/svg">
<path d="M10.031 0.892466C9.75249 0.629162 9.38376 0.482452 9.00049 0.482452C8.61722 0.482452 8.24849 0.629162 7.96999 0.892466L0.70399 7.75947C0.481512 7.97 0.304361 8.22373 0.183393 8.50513C0.0624249 8.78653 0.000185923 9.08967 0.000489386 9.39597V17.751C0.000887037 18.3474 0.238115 18.9194 0.660029 19.341C1.08194 19.7626 1.65401 19.9995 2.25049 19.9995H4.50049C5.09723 19.9995 5.66952 19.7624 6.09148 19.3405C6.51344 18.9185 6.75049 18.3462 6.75049 17.7495V13.9995C6.75049 13.8006 6.82951 13.6098 6.97016 13.4691C7.11081 13.3285 7.30158 13.2495 7.50049 13.2495H10.5005C10.6994 13.2495 10.8902 13.3285 11.0308 13.4691C11.1715 13.6098 11.2505 13.8006 11.2505 13.9995V17.7495C11.2505 18.3462 11.4875 18.9185 11.9095 19.3405C12.3315 19.7624 12.9038 19.9995 13.5005 19.9995H15.7505C16.3472 19.9995 16.9195 19.7624 17.3415 19.3405C17.7634 18.9185 18.0005 18.3462 18.0005 17.7495V9.39447C18.0004 9.08831 17.9378 8.7854 17.8166 8.50426C17.6954 8.22313 17.5181 7.96969 17.2955 7.75947L10.031 0.892466Z" fill="#77758A"/>
</svg>
