<svg width="20" height="20" viewBox="0 0 20 20" fill="none" xmlns="http://www.w3.org/2000/svg">
<g clip-path="url(#clip0_93_1461)">
<path d="M10 14.1666L10.8334 12.5V8.21496C12.2675 7.84246 13.3334 6.54829 13.3334 4.99996C13.3334 3.16163 11.8384 1.66663 10 1.66663C8.16169 1.66663 6.66669 3.16163 6.66669 4.99996C6.66669 6.54829 7.73252 7.84246 9.16669 8.21496V12.5L10 14.1666Z" fill="#D7D8DA"/>
<path d="M13.5559 8.8021L13.1117 10.4088C15.2709 11.0054 16.6667 12.1529 16.6667 13.3329C16.6667 14.9096 13.9292 16.6663 10 16.6663C6.07085 16.6663 3.33335 14.9096 3.33335 13.3329C3.33335 12.1529 4.72919 11.0054 6.88919 10.4079L6.44502 8.80127C3.49752 9.61627 1.66669 11.3521 1.66669 13.3329C1.66669 16.1363 5.32752 18.3329 10 18.3329C14.6725 18.3329 18.3334 16.1363 18.3334 13.3329C18.3334 11.3521 16.5025 9.61627 13.5559 8.8021Z" fill="#D7D8DA"/>
</g>
<defs>
<clipPath id="clip0_93_1461">
<rect width="20" height="20" fill="white"/>
</clipPath>
</defs>
</svg>
