<svg width="16" height="18" viewBox="0 0 16 18" fill="none" xmlns="http://www.w3.org/2000/svg">
<path d="M2.86951 2.80654C4.23029 1.44575 6.07591 0.681274 8.00034 0.681274C9.92478 0.681274 11.7704 1.44575 13.1312 2.80654C14.492 4.16732 15.2564 6.01293 15.2564 7.93737C15.2564 9.8618 14.492 11.7074 13.1312 13.0682L12.142 14.0465C11.4131 14.7615 10.467 15.6815 9.30368 16.8065C8.95403 17.1446 8.4867 17.3336 8.00034 17.3336C7.51398 17.3336 7.04665 17.1446 6.69701 16.8065L3.78784 13.9765C3.42173 13.6176 3.11562 13.3149 2.86951 13.0682C2.19569 12.3944 1.66118 11.5945 1.29651 10.7142C0.931836 9.83382 0.744141 8.89026 0.744141 7.93737C0.744141 6.98448 0.931836 6.04091 1.29651 5.16056C1.66118 4.28021 2.19569 3.48031 2.86951 2.80654ZM12.247 3.68987C11.6892 3.13213 11.027 2.68972 10.2983 2.3879C9.56951 2.08608 8.78843 1.93075 7.99963 1.93079C7.21084 1.93083 6.42977 2.08623 5.70104 2.38813C4.9723 2.69002 4.31016 3.1325 3.75243 3.69029C3.19469 4.24808 2.75228 4.91026 2.45046 5.63902C2.14864 6.36779 1.99331 7.14887 1.99335 7.93766C1.99339 8.72646 2.14879 9.50752 2.45068 10.2363C2.75258 10.965 3.19505 11.6271 3.75284 12.1849L4.99284 13.4082C5.67506 14.0754 6.53284 14.9088 7.56618 15.9082C7.6827 16.0207 7.83836 16.0836 8.00034 16.0836C8.16233 16.0836 8.31799 16.0207 8.43451 15.9082L11.2637 13.1582C11.6553 12.7743 11.9831 12.4499 12.247 12.1849C13.3733 11.0586 14.006 9.531 14.006 7.9382C14.006 6.3454 13.3733 4.81784 12.247 3.69154M8.00034 5.6657C8.32887 5.6657 8.65417 5.73041 8.95769 5.85613C9.26121 5.98185 9.53699 6.16612 9.76929 6.39842C10.0016 6.63072 10.1859 6.90651 10.3116 7.21002C10.4373 7.51354 10.502 7.83885 10.502 8.16737C10.502 8.49589 10.4373 8.8212 10.3116 9.12472C10.1859 9.42823 10.0016 9.70401 9.76929 9.93631C9.53699 10.1686 9.26121 10.3529 8.95769 10.4786C8.65417 10.6043 8.32887 10.669 8.00034 10.669C7.34488 10.6571 6.7203 10.3883 6.26098 9.92051C5.80167 9.45274 5.54433 8.82336 5.54433 8.16779C5.54433 7.51221 5.80167 6.88283 6.26098 6.41506C6.7203 5.94728 7.34488 5.6785 8.00034 5.66654M8.00034 6.91654C7.66838 6.91654 7.35001 7.04841 7.11528 7.28314C6.88055 7.51787 6.74868 7.83624 6.74868 8.1682C6.74868 8.50016 6.88055 8.81853 7.11528 9.05326C7.35001 9.288 7.66838 9.41987 8.00034 9.41987C8.3266 9.41145 8.63667 9.27593 8.86446 9.04219C9.09224 8.80845 9.21972 8.49499 9.21972 8.16862C9.21972 7.84225 9.09224 7.52879 8.86446 7.29505C8.63667 7.06131 8.3266 6.92579 8.00034 6.91737" fill="#D7D8DA"/>
<path d="M12.247 3.68987C11.6892 3.13213 11.027 2.68972 10.2983 2.3879C9.56951 2.08608 8.78843 1.93075 7.99963 1.93079C7.21084 1.93083 6.42977 2.08623 5.70104 2.38813C4.9723 2.69002 4.31016 3.1325 3.75243 3.69029C3.19469 4.24807 2.75228 4.91026 2.45046 5.63902C2.14864 6.36779 1.99331 7.14887 1.99335 7.93766C1.99339 8.72646 2.14879 9.50752 2.45068 10.2363C2.75258 10.965 3.19505 11.6271 3.75284 12.1849L4.99284 13.4082C5.67506 14.0754 6.53284 14.9088 7.56618 15.9082C7.6827 16.0207 7.83836 16.0836 8.00034 16.0836C8.16233 16.0836 8.31799 16.0207 8.43451 15.9082L11.2637 13.1582C11.6553 12.7743 11.9831 12.4499 12.247 12.1849C13.3733 11.0586 14.006 9.531 14.006 7.9382C14.006 6.3454 13.3733 4.81784 12.247 3.69154M8.00034 5.6657C8.32887 5.6657 8.65417 5.73041 8.95769 5.85613C9.26121 5.98185 9.53699 6.16612 9.76929 6.39842C10.0016 6.63072 10.1859 6.90651 10.3116 7.21002C10.4373 7.51354 10.502 7.83885 10.502 8.16737C10.502 8.49589 10.4373 8.8212 10.3116 9.12472C10.1859 9.42823 10.0016 9.70401 9.76929 9.93631C9.53699 10.1686 9.26121 10.3529 8.95769 10.4786C8.65417 10.6043 8.32887 10.669 8.00034 10.669C7.34488 10.6571 6.7203 10.3883 6.26098 9.92051C5.80167 9.45274 5.54433 8.82336 5.54433 8.16779C5.54433 7.51221 5.80167 6.88283 6.26098 6.41506C6.7203 5.94728 7.34488 5.6785 8.00034 5.66654M8.00034 6.91654C7.66838 6.91654 7.35001 7.04841 7.11528 7.28314C6.88055 7.51787 6.74868 7.83624 6.74868 8.1682C6.74868 8.50016 6.88055 8.81853 7.11528 9.05326C7.35001 9.288 7.66838 9.41987 8.00034 9.41987C8.3266 9.41145 8.63667 9.27593 8.86446 9.04219C9.09224 8.80845 9.21972 8.49499 9.21972 8.16862C9.21972 7.84225 9.09224 7.52879 8.86446 7.29505C8.63667 7.06131 8.3266 6.92579 8.00034 6.91737M2.86951 2.80654C4.23029 1.44575 6.07591 0.681274 8.00034 0.681274C9.92478 0.681274 11.7704 1.44575 13.1312 2.80654C14.492 4.16732 15.2564 6.01293 15.2564 7.93737C15.2564 9.86181 14.492 11.7074 13.1312 13.0682L12.142 14.0465C11.4131 14.7615 10.467 15.6815 9.30368 16.8065C8.95403 17.1446 8.4867 17.3336 8.00034 17.3336C7.51398 17.3336 7.04665 17.1446 6.69701 16.8065L3.78784 13.9765C3.42173 13.6176 3.11562 13.3149 2.86951 13.0682C2.19569 12.3944 1.66118 11.5945 1.29651 10.7142C0.931836 9.83382 0.744141 8.89026 0.744141 7.93737C0.744141 6.98448 0.931836 6.04091 1.29651 5.16056C1.66118 4.28021 2.19569 3.48031 2.86951 2.80654Z" stroke="#D7D8DA" stroke-width="0.416667"/>
</svg>
