<svg width="21" height="22" viewBox="0 0 21 22" fill="none" xmlns="http://www.w3.org/2000/svg">
<path d="M11.4748 21.7146C11.5089 21.7072 11.542 21.6957 11.5733 21.6803C11.6059 21.664 11.6388 21.6459 11.6719 21.6259L19.3823 17.2339C19.842 16.971 20.1916 16.6707 20.431 16.333C20.671 15.9945 20.7909 15.4676 20.7906 14.7525V7.08103C20.7906 6.77903 20.7643 6.52945 20.7118 6.33231L11.4748 11.611V21.7146ZM10.1256 21.7146V11.611L0.888611 6.33231C0.836039 6.52945 0.809753 6.77903 0.809753 7.08103V14.7525C0.809753 15.4682 0.931182 15.995 1.17404 16.333C1.4169 16.671 1.7649 16.9713 2.21804 17.2339L9.93832 21.6259C9.9709 21.6456 10.002 21.6637 10.0318 21.6803C10.0611 21.6962 10.093 21.7078 10.1256 21.7146ZM10.8049 10.429L15.0096 8.04617L5.6839 2.7186L2.06975 4.7766C1.8469 4.90145 1.66304 5.02945 1.51818 5.1606L10.8049 10.429ZM16.3785 7.26788L20.0813 5.1606C19.9149 5.01374 19.7333 4.88502 19.5396 4.7766L12.5878 0.817883C11.9772 0.463312 11.3829 0.286026 10.8049 0.286026C10.2206 0.286026 9.62333 0.463169 9.01304 0.817454L7.01375 1.95017L16.3785 7.26788Z" fill="#77758A"/>
</svg>
