<svg width="10" height="10" viewBox="0 0 10 10" fill="none" xmlns="http://www.w3.org/2000/svg">
<path d="M8.46123 3.97417H6.02533V1.53828C6.02533 1.26626 5.91727 1.00538 5.72493 0.813038C5.53258 0.620693 5.27171 0.512634 4.99969 0.512634C4.72767 0.512634 4.4668 0.620693 4.27445 0.813038C4.08211 1.00538 3.97405 1.26626 3.97405 1.53828L4.01046 3.97417H1.53815C1.26614 3.97417 1.00526 4.08223 0.812915 4.27458C0.62057 4.46692 0.512512 4.7278 0.512512 4.99981C0.512512 5.27183 0.62057 5.53271 0.812915 5.72505C1.00526 5.9174 1.26614 6.02545 1.53815 6.02545C1.81017 6.02545 4.01046 5.98904 4.01046 5.98904L3.97405 8.46135C3.97405 8.73337 4.08211 8.99424 4.27445 9.18659C4.4668 9.37893 4.72767 9.48699 4.99969 9.48699C5.27171 9.48699 5.53258 9.37893 5.72493 9.18659C5.91727 8.99424 6.02533 8.73337 6.02533 8.46135V5.98904L8.46123 6.02545C8.73325 6.02545 8.99412 5.9174 9.18647 5.72505C9.37881 5.53271 9.48687 5.27183 9.48687 4.99981C9.48687 4.7278 9.37881 4.46692 9.18647 4.27458C8.99412 4.08223 8.73325 3.97417 8.46123 3.97417Z" fill="url(#paint0_linear_93_1503)"/>
<defs>
<linearGradient id="paint0_linear_93_1503" x1="3.33877" y1="0.512634" x2="2.24333" y2="9.3546" gradientUnits="userSpaceOnUse">
<stop stop-color="#6459F3"/>
<stop offset="1" stop-color="#4237CD"/>
</linearGradient>
</defs>
</svg>
