<svg width="24" height="24" viewBox="0 0 24 24" fill="none" xmlns="http://www.w3.org/2000/svg">
<path d="M14.4446 4.84062C14.4446 5.48277 14.1869 6.09863 13.7284 6.5527C13.2698 7.00677 12.6478 7.26187 11.9993 7.26187C11.3508 7.26187 10.7288 7.00677 10.2702 6.5527C9.81163 6.09863 9.554 5.48277 9.554 4.84062C9.554 4.19846 9.81163 3.58261 10.2702 3.12853C10.7288 2.67446 11.3508 2.41937 11.9993 2.41937C12.6478 2.41937 13.2698 2.67446 13.7284 3.12853C14.1869 3.58261 14.4446 4.19846 14.4446 4.84062ZM16.2357 7.26187C16.6646 6.52568 16.8901 5.69072 16.8899 4.84087C16.8896 3.99102 16.6634 3.15621 16.2341 2.42031C15.8048 1.68441 15.1874 1.07334 14.4441 0.6485C13.7007 0.223657 12.8576 0 11.9993 0C11.141 0 10.2978 0.223657 9.55447 0.6485C8.81112 1.07334 8.19378 1.68441 7.76447 2.42031C7.33516 3.15621 7.109 3.99102 7.10871 4.84087C7.10842 5.69072 7.33401 6.52568 7.76282 7.26187H3.52147C3.23278 7.26181 2.95337 7.3629 2.73273 7.54725C2.51209 7.7316 2.36445 7.98731 2.31595 8.26911L0.0173775 21.586C-0.0125208 21.7597 -0.00375963 21.9378 0.0430491 22.1078C0.0898579 22.2778 0.173586 22.4356 0.288385 22.5703C0.403184 22.705 0.546286 22.8132 0.707698 22.8874C0.869109 22.9616 1.04494 23 1.2229 23H22.7769C22.955 23.0001 23.1309 22.9616 23.2924 22.8873C23.454 22.813 23.5971 22.7047 23.7119 22.5699C23.8268 22.4351 23.9105 22.2771 23.9572 22.107C24.0039 21.9368 24.0125 21.7586 23.9824 21.5848L21.6838 8.2679C21.635 7.98612 21.4871 7.73053 21.2662 7.5464C21.0454 7.36227 20.7658 7.26147 20.4771 7.26187H16.2357Z" fill="#1D1D30"/>
<path d="M11.383 13.098L8.588 15.477C9.628 17.037 10.4297 18.2113 10.993 19H9.147C8.419 17.752 7.86867 16.816 7.496 16.192V19H5.858V11.473L7.496 10.615V14.528C7.92067 14.19 8.48833 13.7133 9.199 13.098H11.383ZM15.9503 18.285C15.5603 18.8657 15.0099 19.156 14.2993 19.156C13.4326 19.156 12.7609 18.8483 12.2843 18.233C11.8769 17.713 11.6733 17.0543 11.6733 16.257C11.6733 15.1217 12.0026 14.2463 12.6613 13.631C13.1639 13.1717 13.7576 12.942 14.4423 12.942C14.9883 12.942 15.4519 13.0763 15.8333 13.345C16.0846 13.5183 16.2103 13.6483 16.2103 13.735L16.3403 13.098H17.6013V18.389C17.6013 19.3857 17.3543 20.1527 16.8603 20.69C16.3749 21.2187 15.6816 21.483 14.7803 21.483C13.8443 21.483 13.0339 21.171 12.3493 20.547L12.7653 19.715C13.2939 20.0617 13.8876 20.235 14.5463 20.235C15.4823 20.235 15.9503 19.585 15.9503 18.285ZM15.9503 15.1C15.9156 14.8313 15.7813 14.6017 15.5473 14.411C15.3219 14.2117 15.0706 14.112 14.7933 14.112C14.3599 14.112 14.0133 14.2853 13.7533 14.632C13.4933 14.9787 13.3633 15.4467 13.3633 16.036C13.3633 17.3273 13.7879 17.973 14.6373 17.973C14.9926 17.973 15.3003 17.8387 15.5603 17.57C15.8203 17.2927 15.9503 16.9677 15.9503 16.595V15.1Z" fill="white"/>
</svg>
